<svg width="27" height="33" viewBox="0 0 27 33" fill="none" xmlns="http://www.w3.org/2000/svg">
    <path d="M2.27269 10.7288C1.74202 11.021 1.27488 11.4167 0.89866 11.8925C0.522444 12.3683 0.24473 12.9147 0.08181 13.4995C-0.0811105 14.0844 -0.125958 14.6961 -0.0501015 15.2986C0.0257549 15.9011 0.220788 16.4824 0.523557 17.0083C0.826326 17.5342 1.23073 17.9941 1.71306 18.3611C2.19539 18.7282 2.74592 18.9949 3.33237 19.1456C3.91882 19.2964 4.52937 19.3281 5.12822 19.239C5.72706 19.1499 6.30214 18.9418 6.81972 18.6268L24.2037 8.56543C24.7212 8.26593 25.1747 7.86712 25.5385 7.39177C25.9023 6.91643 26.1692 6.37386 26.324 5.79504C26.4788 5.21622 26.5184 4.61249 26.4406 4.01832C26.3628 3.42414 26.169 2.85116 25.8705 2.33209C25.5719 1.81302 25.1744 1.35802 24.7005 0.993079C24.2267 0.628133 23.6858 0.360387 23.1088 0.205128C22.5318 0.049868 21.9299 0.0101355 21.3376 0.0881986C20.7453 0.166262 20.1741 0.360592 19.6567 0.660093L2.27269 10.7288Z" fill="#E4002B"/>
    <path d="M2.27436 24.5006C1.25789 25.1192 0.523402 26.1127 0.22827 27.268C-0.0668615 28.4233 0.10084 29.6487 0.695443 30.6815C1.29005 31.7143 2.26425 32.4724 3.40931 32.7933C4.55438 33.1143 5.77922 32.9726 6.82139 32.3986L17.1948 26.3999C18.2398 25.795 19.0025 24.7985 19.3151 23.6295C19.6276 22.4605 19.4645 21.2149 18.8615 20.1666C18.563 19.6475 18.1654 19.1925 17.6916 18.8276C17.2177 18.4626 16.6768 18.1949 16.0998 18.0396C14.9345 17.7261 13.6928 17.8897 12.6477 18.4946L2.27436 24.5006Z" fill="#E4002B"/>
</svg>
