<svg width="28" height="23" viewBox="0 0 28 23" fill="none" xmlns="http://www.w3.org/2000/svg">
<path d="M5 6C7.33766 1.48141 16.8286 -2.52076 23 6" stroke="#E4002B" stroke-linecap="round"/>
<rect x="1.077" y="6.24266" width="1.52987" height="5.29179" rx="0.5" transform="rotate(-48.0262 1.077 6.24266)" fill="#E4002B"/>
<rect width="1.52987" height="5.29179" rx="0.5" transform="matrix(-0.664391 -0.747385 -0.747385 0.664391 26.9714 6.1434)" fill="#E4002B"/>
<rect x="0.579071" y="8.11331" width="1.04317" height="3.60829" rx="0.5" transform="rotate(-48.0262 0.579071 8.11331)" fill="#E4002B"/>
<rect width="1.04317" height="3.60829" rx="0.5" transform="matrix(-0.664391 -0.747385 -0.747385 0.664391 27.4583 8.01697)" fill="#E4002B"/>
<rect x="0.492859" y="10.2036" width="1.04317" height="1.50989" rx="0.5" transform="rotate(-48.0262 0.492859 10.2036)" fill="#E4002B"/>
<rect width="1.04317" height="1.50989" rx="0.5" transform="matrix(-0.664391 -0.747385 -0.747385 0.664391 27.566 10.2682)" fill="#E4002B"/>
<path d="M19.2227 7.91016C20.3271 7.91029 21.2227 8.80567 21.2227 9.91016V20.2461C21.2225 21.3504 20.327 22.246 19.2227 22.2461H18.2354V15.8828C18.2351 14.7785 17.3398 13.8828 16.2354 13.8828H11.873C10.7688 13.8829 9.8733 14.7785 9.87305 15.8828V22.2461H8.88672C7.78225 22.2461 6.88688 21.3505 6.88672 20.2461V9.91016C6.88672 8.80559 7.78215 7.91016 8.88672 7.91016H19.2227Z" fill="#E4002B"/>
</svg>
