<svg width="24" height="24" viewBox="0 0 24 24" fill="none" xmlns="http://www.w3.org/2000/svg">
<path d="M12.5455 3C12.5455 1.335 13.5164 0 14.7273 0H18.5455C19.7455 0 20.7273 1.35 20.7273 3V6.24C19.4618 6.855 18.5455 8.505 18.5455 10.455V13.5H12.5455V3ZM5.45455 10.44V13.5H11.4545V3C11.4545 1.335 10.4836 0 9.27273 0H5.45455C4.25455 0 3.27273 1.35 3.27273 3V6.225C4.53818 6.84 5.45455 8.505 5.45455 10.44ZM21.4473 7.545C20.3782 7.785 19.6364 9.18 19.6364 10.68V15H4.36364V10.5C4.36364 9.70435 4.13377 8.94129 3.7246 8.37868C3.31543 7.81607 2.76047 7.5 2.18182 7.5C1.60316 7.5 1.04821 7.81607 0.63904 8.37868C0.22987 8.94129 0 9.70435 0 10.5V18C0 19.65 0.981818 21 2.18182 21V24H4.36364V21H19.6364V24H21.8182V21C23.0182 21 24 19.65 24 18V10.5C24 8.685 22.8109 7.23 21.4473 7.545Z" fill="white"/>
</svg>
